Mirza-Regular - UFO -Without Production Namas.ufo
<glyph name="sadabove-ar" format="1">
  <advance width="0"/>
  <unicode hex="0610"/>
  <outline>
    <contour>
      <point x="-93" y="786"/>
      <point x="-84" y="775"/>
      <point x="-77" y="762" type="curve"/>
      <point x="-68" y="743"/>
      <point x="-62" y="724"/>
      <point x="-62" y="704" type="curve"/>
      <point x="-58" y="706" type="line"/>
      <point x="-54" y="716"/>
      <point x="-52" y="727"/>
      <point x="-52" y="737" type="curve" smooth="yes"/>
      <point x="-52" y="745"/>
      <point x="-54" y="757"/>
      <point x="-56" y="768" type="curve"/>
      <point x="-51" y="765"/>
      <point x="-45" y="762"/>
      <point x="-41" y="761" type="curve"/>
      <point x="-33" y="759"/>
      <point x="-21" y="759"/>
      <point x="-6" y="759" type="curve" smooth="yes"/>
      <point x="18" y="759"/>
      <point x="43" y="768"/>
      <point x="64" y="784" type="curve"/>
      <point x="74" y="792"/>
      <point x="83" y="802"/>
      <point x="88" y="811" type="curve" smooth="yes"/>
      <point x="95" y="822"/>
      <point x="97" y="832"/>
      <point x="97" y="843" type="curve" smooth="yes"/>
      <point x="97" y="847"/>
      <point x="96" y="856"/>
      <point x="84" y="866" type="curve" smooth="yes"/>
      <point x="76" y="872"/>
      <point x="66" y="876"/>
      <point x="59" y="876" type="curve" smooth="yes"/>
      <point x="34" y="876"/>
      <point x="10" y="852"/>
      <point x="-3" y="837" type="curve" smooth="yes"/>
      <point x="-19" y="822"/>
      <point x="-24" y="813"/>
      <point x="-38" y="793" type="curve"/>
      <point x="-56" y="796"/>
      <point x="-65" y="799"/>
      <point x="-78" y="815" type="curve"/>
      <point x="-86" y="807"/>
      <point x="-90" y="800"/>
      <point x="-96" y="791" type="curve"/>
    </contour>
    <contour>
      <point x="-15" y="805"/>
      <point x="-7" y="816"/>
      <point x="1" y="825" type="curve"/>
      <point x="12" y="835"/>
      <point x="23" y="848"/>
      <point x="44" y="848" type="curve" smooth="yes"/>
      <point x="55" y="848"/>
      <point x="66" y="841"/>
      <point x="72" y="834" type="curve"/>
      <point x="75" y="830"/>
      <point x="75" y="826"/>
      <point x="79" y="819" type="curve"/>
      <point x="72" y="811"/>
      <point x="68" y="808"/>
      <point x="57" y="802" type="curve"/>
      <point x="47" y="798"/>
      <point x="34" y="793"/>
      <point x="18" y="793" type="curve" smooth="yes"/>
      <point x="-24" y="793" type="line"/>
    </contour>
    <contour>
      <point x="1" y="876" type="move" name="top"/>
    </contour>
    <contour>
      <point x="1" y="684" type="move" name="_top"/>
    </contour>
  </outline>
</glyph>
<glyph name="ainabove-ar" format="1">
  <advance width="0"/>
  <unicode hex="0611"/>
  <outline>
    <contour>
      <point x="36" y="796"/>
      <point x="20" y="796"/>
      <point x="20" y="796" type="curve"/>
      <point x="2" y="804"/>
      <point x="-12" y="826"/>
      <point x="-14" y="842" type="curve"/>
      <point x="-4" y="849"/>
      <point x="9" y="854"/>
      <point x="27" y="854" type="curve" smooth="yes"/>
      <point x="41" y="854"/>
      <point x="54" y="849"/>
      <point x="57" y="848" type="curve"/>
      <point x="65" y="855" type="line"/>
      <point x="64" y="857"/>
      <point x="43" y="878"/>
      <point x="23" y="878" type="curve" smooth="yes"/>
      <point x="10" y="878"/>
      <point x="-4" y="870"/>
      <point x="-14" y="861" type="curve" smooth="yes"/>
      <point x="-25" y="852"/>
      <point x="-34" y="836"/>
      <point x="-34" y="822" type="curve" smooth="yes"/>
      <point x="-34" y="812"/>
      <point x="-29" y="801"/>
      <point x="-22" y="796" type="curve"/>
      <point x="-40" y="798"/>
      <point x="-48" y="801"/>
      <point x="-62" y="818" type="curve"/>
      <point x="-69" y="809"/>
      <point x="-74" y="803"/>
      <point x="-79" y="793" type="curve"/>
      <point x="-76" y="788"/>
      <point x="-67" y="777"/>
      <point x="-61" y="764" type="curve" smooth="yes"/>
      <point x="-51" y="745"/>
      <point x="-45" y="726"/>
      <point x="-45" y="706" type="curve"/>
      <point x="-41" y="708" type="line"/>
      <point x="-37" y="718"/>
      <point x="-35" y="729"/>
      <point x="-35" y="739" type="curve" smooth="yes"/>
      <point x="-35" y="747"/>
      <point x="-37" y="759"/>
      <point x="-39" y="771" type="curve"/>
      <point x="-29" y="764"/>
      <point x="-18" y="761"/>
      <point x="-5" y="761" type="curve" smooth="yes"/>
      <point x="22" y="760"/>
      <point x="47" y="772"/>
      <point x="56" y="775" type="curve" smooth="yes"/>
      <point x="61" y="777"/>
      <point x="57" y="777"/>
      <point x="67" y="780" type="curve"/>
      <point x="73" y="790"/>
      <point x="75" y="798"/>
      <point x="78" y="810" type="curve"/>
      <point x="74" y="809"/>
      <point x="67" y="806"/>
      <point x="60" y="804" type="curve"/>
    </contour>
    <contour>
      <point x="-1" y="878" type="move" name="top"/>
    </contour>
    <contour>
      <point x="-1" y="686" type="move" name="_top"/>
    </contour>
  </outline>
</glyph>
<glyph name="semicolon-ar" format="1">
  <advance width="210"/>
  <unicode hex="061B"/>
  <outline>
    <contour>
      <point x="77" y="107"/>
      <point x="53" y="83"/>
      <point x="30" y="55" type="curve"/>
      <point x="58" y="32"/>
      <point x="82" y="8"/>
      <point x="105" y="-20" type="curve"/>
      <point x="133" y="3"/>
      <point x="157" y="27"/>
      <point x="180" y="55" type="curve"/>
      <point x="152" y="78"/>
      <point x="128" y="102"/>
      <point x="105" y="130" type="curve"/>
    </contour>
    <contour>
      <point x="97" y="368"/>
      <point x="56" y="295"/>
      <point x="49" y="216" type="curve"/>
      <point x="74" y="190" type="line"/>
      <point x="101" y="190"/>
      <point x="140" y="201"/>
      <point x="164" y="216" type="curve"/>
      <point x="153" y="241"/>
      <point x="147" y="271"/>
      <point x="147" y="305" type="curve" smooth="yes"/>
      <point x="147" y="343"/>
      <point x="159" y="382"/>
      <point x="180" y="409" type="curve"/>
      <point x="166" y="424" type="line"/>
    </contour>
  </outline>
</glyph>
<glyph name="dal-ar" format="1">
  <advance width="413"/>
  <unicode hex="062F"/>
  <outline>
    <contour>
      <point x="353" y="242"/>
      <point x="312" y="288"/>
      <point x="278" y="319" type="curve" smooth="yes"/>
      <point x="244" y="349"/>
      <point x="207" y="370"/>
      <point x="189" y="378" type="curve"/>
      <point x="178" y="348"/>
      <point x="170" y="324"/>
      <point x="165" y="294" type="curve"/>
      <point x="262" y="255"/>
      <point x="312" y="164"/>
      <point x="312" y="164" type="curve" smooth="yes"/>
      <point x="312" y="164"/>
      <point x="290" y="90"/>
      <point x="192" y="90" type="curve" smooth="yes"/>
      <point x="151" y="90" type="line" smooth="yes"/>
      <point x="118" y="90"/>
      <point x="99" y="99"/>
      <point x="83" y="117" type="curve" smooth="yes"/>
      <point x="70" y="130"/>
      <point x="63" y="147"/>
      <point x="61" y="168" type="curve"/>
      <point x="44" y="164" type="line"/>
      <point x="40" y="143"/>
      <point x="31" y="79"/>
      <point x="65" y="35" type="curve" smooth="yes"/>
      <point x="87" y="7"/>
      <point x="123" y="-6"/>
      <point x="171" y="-6" type="curve" smooth="yes"/>
      <point x="226" y="-6"/>
      <point x="272" y="11"/>
      <point x="304" y="44" type="curve" smooth="yes"/>
      <point x="336" y="77"/>
      <point x="353" y="126"/>
      <point x="353" y="171" type="curve" smooth="yes"/>
    </contour>
    <contour>
      <point x="189" y="408" type="move" name="top"/>
    </contour>
    <contour>
      <point x="175" y="-35" type="move" name="bottom"/>
    </contour>
  </outline>
</glyph>
<glyph name="lam-ar" format="1">
  <advance width="559"/>
  <unicode hex="0644"/>
  <outline>
    <contour>
      <point x="457" y="514"/>
      <point x="437" y="548"/>
      <point x="427" y="566" type="curve"/>
      <point x="368" y="490" type="line"/>
      <point x="382" y="454"/>
      <point x="409" y="358"/>
      <point x="439" y="169" type="curve" smooth="yes"/>
      <point x="450" y="99"/>
      <point x="455" y="49"/>
      <point x="455" y="25" type="curve" smooth="yes"/>
      <point x="455" y="-9"/>
      <point x="445" y="-35"/>
      <point x="419" y="-54" type="curve" smooth="yes"/>
      <point x="390" y="-75"/>
      <point x="344" y="-86"/>
      <point x="289" y="-86" type="curve" smooth="yes"/>
      <point x="253" y="-86"/>
      <point x="222" y="-81"/>
      <point x="196" y="-73" type="curve" smooth="yes"/>
      <point x="155" y="-60"/>
      <point x="135" y="-41"/>
      <point x="124" y="-19" type="curve" smooth="yes"/>
      <point x="105" y="18"/>
      <point x="113" y="66"/>
      <point x="120" y="101" type="curve"/>
      <point x="101" y="107" type="line"/>
      <point x="86" y="71"/>
      <point x="74" y="32"/>
      <point x="71" y="-6" type="curve" smooth="yes"/>
      <point x="69" y="-36"/>
      <point x="72" y="-65"/>
      <point x="84" y="-94" type="curve" smooth="yes"/>
      <point x="97" y="-126"/>
      <point x="120" y="-153"/>
      <point x="156" y="-172" type="curve" smooth="yes"/>
      <point x="191" y="-190"/>
      <point x="234" y="-199"/>
      <point x="285" y="-199" type="curve" smooth="yes"/>
      <point x="355" y="-199"/>
      <point x="408" y="-179"/>
      <point x="444" y="-138" type="curve" smooth="yes"/>
      <point x="466" y="-113"/>
      <point x="481" y="-81"/>
      <point x="490" y="-44" type="curve" smooth="yes"/>
      <point x="499" y="-8"/>
      <point x="501" y="33"/>
      <point x="496" y="78" type="curve"/>
      <point x="479" y="265"/>
      <point x="468" y="346"/>
      <point x="463" y="401" type="curve" smooth="yes"/>
      <point x="459" y="446"/>
      <point x="462" y="464"/>
      <point x="486" y="484" type="curve"/>
    </contour>
    <contour>
      <point x="337" y="558" type="move" name="top"/>
    </contour>
    <contour>
      <point x="285" y="-229" type="move" name="bottom"/>
    </contour>
  </outline>
</glyph>
<glyph name="waw-ar" format="1">
  <advance width="348"/>
  <unicode hex="0648"/>
  <outline>
    <contour>
      <point x="257" y="243"/>
      <point x="236" y="303"/>
      <point x="185" y="303" type="curve" smooth="yes"/>
      <point x="157" y="303"/>
      <point x="134" y="282"/>
      <point x="118" y="255" type="curve" smooth="yes"/>
      <point x="100" y="225"/>
      <point x="90" y="187"/>
      <point x="89" y="160" type="curve" smooth="yes"/>
      <point x="87" y="119"/>
      <point x="94" y="89"/>
      <point x="112" y="70" type="curve" smooth="yes"/>
      <point x="126" y="55"/>
      <point x="148" y="47"/>
      <point x="179" y="47" type="curve" smooth="yes"/>
      <point x="233" y="47"/>
      <point x="249" y="78"/>
      <point x="254" y="92" type="curve"/>
      <point x="255" y="66"/>
      <point x="254" y="33"/>
      <point x="249" y="11" type="curve" smooth="yes"/>
      <point x="231" y="-64"/>
      <point x="170" y="-117"/>
      <point x="109" y="-151" type="curve" smooth="yes"/>
      <point x="56" y="-181"/>
      <point x="0" y="-210"/>
      <point x="-20" y="-221" type="curve"/>
      <point x="-11" y="-234" type="line"/>
      <point x="11" y="-229"/>
      <point x="30" y="-226"/>
      <point x="47" y="-226" type="curve" smooth="yes"/>
      <point x="68" y="-226"/>
      <point x="89" y="-230"/>
      <point x="118" y="-230" type="curve" smooth="yes"/>
      <point x="143" y="-230"/>
      <point x="165" y="-225"/>
      <point x="190" y="-208" type="curve" smooth="yes"/>
      <point x="210" y="-195"/>
      <point x="231" y="-173"/>
      <point x="243" y="-149" type="curve" smooth="yes"/>
      <point x="261" y="-112"/>
      <point x="272" y="-76"/>
      <point x="279" y="-42" type="curve" smooth="yes"/>
      <point x="290" y="14"/>
      <point x="289" y="63"/>
      <point x="287" y="99" type="curve" smooth="yes"/>
      <point x="284" y="166"/>
      <point x="272" y="202"/>
      <point x="265" y="220" type="curve" smooth="yes"/>
    </contour>
    <contour>
      <point x="241" y="168"/>
      <point x="244" y="145"/>
      <point x="244" y="145" type="curve" smooth="yes"/>
      <point x="244" y="145"/>
      <point x="224" y="120"/>
      <point x="186" y="120" type="curve" smooth="yes"/>
      <point x="153" y="120"/>
      <point x="121" y="133"/>
      <point x="121" y="167" type="curve" smooth="yes"/>
      <point x="121" y="204"/>
      <point x="147" y="226"/>
      <point x="177" y="226" type="curve" smooth="yes"/>
      <point x="203" y="226"/>
      <point x="219" y="208"/>
      <point x="229" y="189" type="curve" smooth="yes"/>
    </contour>
    <contour>
      <point x="106" y="-34" type="move" name="center"/>
    </contour>
    <contour>
      <point x="76" y="-268" type="move" name="bottom"/>
    </contour>
    <contour>
      <point x="175" y="333" type="move" name="top"/>
    </contour>
  </outline>
</glyph>
<glyph name="dammatan-ar" format="1">
  <advance width="0"/>
  <unicode hex="064C"/>
  <outline>
    <contour>
      <point x="65" y="790" type="line"/>
      <point x="91" y="833"/>
      <point x="90" y="873"/>
      <point x="68" y="885" type="curve" smooth="yes"/>
      <point x="49" y="895"/>
      <point x="24" y="885"/>
      <point x="1" y="857" type="curve" smooth="yes"/>
      <point x="-12" y="841"/>
      <point x="-13" y="832"/>
      <point x="-10" y="819" type="curve" smooth="yes"/>
      <point x="-6" y="799"/>
      <point x="8" y="790"/>
      <point x="37" y="779" type="curve"/>
      <point x="20" y="757"/>
      <point x="-1" y="739"/>
      <point x="-29" y="734" type="curve"/>
      <point x="-8" y="763"/>
      <point x="-27" y="797"/>
      <point x="-44" y="797" type="curve" smooth="yes"/>
      <point x="-50" y="797"/>
      <point x="-67" y="792"/>
      <point x="-79" y="785" type="curve"/>
      <point x="-83" y="775"/>
      <point x="-84" y="773"/>
      <point x="-86" y="762" type="curve"/>
      <point x="-76" y="769"/>
      <point x="-51" y="778"/>
      <point x="-40" y="767" type="curve" smooth="yes"/>
      <point x="-32" y="759"/>
      <point x="-32" y="744"/>
      <point x="-48" y="732" type="curve"/>
      <point x="-57" y="731"/>
      <point x="-67" y="731"/>
      <point x="-78" y="731" type="curve"/>
      <point x="-79" y="729"/>
      <point x="-85" y="719"/>
      <point x="-89" y="705" type="curve"/>
      <point x="-49" y="700"/>
      <point x="-13" y="708"/>
      <point x="16" y="729" type="curve" smooth="yes"/>
      <point x="33" y="742"/>
      <point x="41" y="750"/>
      <point x="53" y="768" type="curve"/>
      <point x="84" y="755" type="line"/>
      <point x="84" y="766"/>
      <point x="83" y="773"/>
      <point x="80" y="782" type="curve"/>
    </contour>
    <contour>
      <point x="28" y="810" type="line" smooth="yes"/>
      <point x="9" y="821"/>
      <point x="7" y="832"/>
      <point x="8" y="839" type="curve" smooth="yes"/>
      <point x="9" y="849"/>
      <point x="17" y="858"/>
      <point x="29" y="861" type="curve"/>
      <point x="39" y="864"/>
      <point x="50" y="861"/>
      <point x="57" y="852" type="curve"/>
      <point x="68" y="840"/>
      <point x="62" y="819"/>
      <point x="49" y="798" type="curve"/>
    </contour>
    <contour>
      <point x="-2" y="896" type="move" name="top"/>
    </contour>
    <contour>
      <point x="-2" y="671" type="move" name="_top"/>
    </contour>
  </outline>
</glyph>
<glyph name="kasra-ar" format="1">
  <advance width="0"/>
  <unicode hex="0650"/>
  <outline>
    <contour>
      <point x="25" y="-227"/>
      <point x="-25" y="-247"/>
      <point x="-81" y="-275" type="curve"/>
      <point x="-84" y="-281"/>
      <point x="-86" y="-291"/>
      <point x="-88" y="-302" type="curve"/>
      <point x="-88" y="-302"/>
      <point x="19" y="-255"/>
      <point x="80" y="-235" type="curve"/>
      <point x="84" y="-227"/>
      <point x="87" y="-217"/>
      <point x="88" y="-207" type="curve"/>
    </contour>
    <contour>
      <point x="0" y="-182" type="move" name="_bottom"/>
    </contour>
    <contour>
      <point x="0" y="-307" type="move" name="bottom"/>
    </contour>
  </outline>
</glyph>
<glyph name="dammareversed-ar" format="1">
  <advance width="0"/>
  <unicode hex="065D"/>
  <outline>
    <contour>
      <point x="-66" y="808" type="line" smooth="yes"/>
      <point x="-92" y="765"/>
      <point x="-91" y="725"/>
      <point x="-69" y="713" type="curve" smooth="yes"/>
      <point x="-50" y="703"/>
      <point x="-25" y="713"/>
      <point x="-2" y="741" type="curve" smooth="yes"/>
      <point x="11" y="757"/>
      <point x="15" y="771"/>
      <point x="12" y="784" type="curve" smooth="yes"/>
      <point x="8" y="801"/>
      <point x="-6" y="813"/>
      <point x="-35" y="824" type="curve"/>
      <point x="-5" y="856"/>
      <point x="23" y="869"/>
      <point x="77" y="867" type="curve" smooth="yes"/>
      <point x="78" y="869"/>
      <point x="84" y="879"/>
      <point x="88" y="893" type="curve"/>
      <point x="48" y="898"/>
      <point x="12" y="890"/>
      <point x="-17" y="869" type="curve" smooth="yes"/>
      <point x="-34" y="856"/>
      <point x="-42" y="848"/>
      <point x="-54" y="830" type="curve"/>
      <point x="-85" y="843" type="line" smooth="yes"/>
      <point x="-85" y="832"/>
      <point x="-84" y="825"/>
      <point x="-81" y="816" type="curve" smooth="yes"/>
    </contour>
    <contour>
      <point x="-29" y="788" type="line" smooth="yes"/>
      <point x="-10" y="777"/>
      <point x="-8" y="766"/>
      <point x="-9" y="759" type="curve" smooth="yes"/>
      <point x="-10" y="749"/>
      <point x="-18" y="740"/>
      <point x="-30" y="737" type="curve"/>
      <point x="-40" y="734"/>
      <point x="-51" y="737"/>
      <point x="-58" y="746" type="curve"/>
      <point x="-69" y="758"/>
      <point x="-63" y="779"/>
      <point x="-50" y="800" type="curve"/>
    </contour>
    <contour>
      <point x="1" y="894" type="move" name="top"/>
    </contour>
    <contour>
      <point x="1" y="689" type="move" name="_top"/>
    </contour>
  </outline>
</glyph>
<glyph name="six-ar" format="1">
  <advance width="392"/>
  <unicode hex="0666"/>
  <outline>
    <contour>
      <point x="303" y="139"/>
      <point x="275" y="215"/>
      <point x="280" y="321" type="curve"/>
      <point x="280" y="329"/>
      <point x="286" y="461"/>
      <point x="286" y="476" type="curve"/>
      <point x="281" y="481" type="line"/>
      <point x="259" y="469"/>
      <point x="220" y="454"/>
      <point x="169" y="454" type="curve" smooth="yes"/>
      <point x="79" y="454"/>
      <point x="75" y="490"/>
      <point x="73" y="512" type="curve"/>
      <point x="51" y="523" type="line"/>
      <point x="47" y="477"/>
      <point x="54" y="438"/>
      <point x="75" y="411" type="curve" smooth="yes"/>
      <point x="92" y="390"/>
      <point x="124" y="375"/>
      <point x="161" y="375" type="curve" smooth="yes"/>
      <point x="187" y="375"/>
      <point x="204" y="381"/>
      <point x="231" y="391" type="curve"/>
      <point x="231" y="208" type="line" smooth="yes"/>
      <point x="231" y="153"/>
      <point x="244" y="112"/>
      <point x="260" y="79" type="curve" smooth="yes"/>
      <point x="277" y="44"/>
      <point x="305" y="18"/>
      <point x="348" y="0" type="curve"/>
      <point x="355" y="36"/>
      <point x="360" y="67"/>
      <point x="362" y="101" type="curve"/>
    </contour>
  </outline>
</glyph>
<glyph name="kafswash-ar" format="1">
  <advance width="864"/>
  <unicode hex="06AA"/>
  <outline>
    <contour>
      <point x="358" y="468"/>
      <point x="307" y="425"/>
      <point x="280" y="394" type="curve" smooth="yes"/>
      <point x="248" y="357"/>
      <point x="229" y="316"/>
      <point x="229" y="284" type="curve" smooth="yes"/>
      <point x="229" y="265"/>
      <point x="236" y="250"/>
      <point x="249" y="237" type="curve" smooth="yes"/>
      <point x="264" y="222"/>
      <point x="289" y="211"/>
      <point x="321" y="205" type="curve" smooth="yes"/>
      <point x="343" y="201"/>
      <point x="363" y="200"/>
      <point x="374" y="200" type="curve" smooth="yes"/>
      <point x="406" y="200"/>
      <point x="571" y="206"/>
      <point x="630" y="206" type="curve" smooth="yes"/>
      <point x="682" y="206"/>
      <point x="718" y="183"/>
      <point x="739" y="163" type="curve" smooth="yes"/>
      <point x="756" y="147"/>
      <point x="760" y="133"/>
      <point x="767" y="106" type="curve" smooth="yes"/>
      <point x="767" y="106"/>
      <point x="686" y="103"/>
      <point x="649" y="102" type="curve" smooth="yes"/>
      <point x="613" y="100"/>
      <point x="576" y="100"/>
      <point x="539" y="100" type="curve" smooth="yes"/>
      <point x="466" y="100"/>
      <point x="415" y="97"/>
      <point x="376" y="97" type="curve" smooth="yes"/>
      <point x="314" y="97"/>
      <point x="279" y="99"/>
      <point x="229" y="106" type="curve" smooth="yes"/>
      <point x="174" y="114"/>
      <point x="133" y="133"/>
      <point x="113" y="164" type="curve" smooth="yes"/>
      <point x="103" y="180"/>
      <point x="96" y="200"/>
      <point x="92" y="224" type="curve"/>
      <point x="73" y="231" type="line"/>
      <point x="68" y="188"/>
      <point x="69" y="151"/>
      <point x="77" y="120" type="curve" smooth="yes"/>
      <point x="94" y="59"/>
      <point x="142" y="22"/>
      <point x="232" y="7" type="curve" smooth="yes"/>
      <point x="268" y="1"/>
      <point x="299" y="-2"/>
      <point x="397" y="-2" type="curve" smooth="yes"/>
      <point x="440" y="-2"/>
      <point x="588" y="3"/>
      <point x="692" y="7" type="curve" smooth="yes"/>
      <point x="729" y="9"/>
      <point x="759" y="25"/>
      <point x="781" y="56" type="curve" smooth="yes"/>
      <point x="796" y="77"/>
      <point x="803" y="98"/>
      <point x="804" y="102" type="curve"/>
      <point x="803" y="133"/>
      <point x="795" y="176"/>
      <point x="768" y="213" type="curve" smooth="yes"/>
      <point x="733" y="258"/>
      <point x="677" y="281"/>
      <point x="599" y="281" type="curve" smooth="yes"/>
      <point x="561" y="281"/>
      <point x="416" y="276"/>
      <point x="384" y="276" type="curve" smooth="yes"/>
      <point x="364" y="276"/>
      <point x="343" y="278"/>
      <point x="325" y="283" type="curve" smooth="yes"/>
      <point x="293" y="289"/>
      <point x="271" y="306"/>
      <point x="268" y="329" type="curve"/>
      <point x="305" y="367"/>
      <point x="370" y="399"/>
      <point x="426" y="416" type="curve"/>
      <point x="434" y="444"/>
      <point x="440" y="471"/>
      <point x="443" y="500" type="curve"/>
    </contour>
    <contour>
      <point x="313" y="489" type="move" name="top"/>
    </contour>
    <contour>
      <point x="439" y="-25" type="move" name="bottom"/>
    </contour>
  </outline>
</glyph>
<glyph name="jeemabove-ar" format="1">
  <advance width="0"/>
  <unicode hex="06DA"/>
  <outline>
    <contour>
      <point x="-80" y="769"/>
      <point x="-72" y="747"/>
      <point x="-59" y="733" type="curve" smooth="yes"/>
      <point x="-46" y="715"/>
      <point x="-24" y="705"/>
      <point x="3" y="705" type="curve" smooth="yes"/>
      <point x="19" y="705"/>
      <point x="28" y="710"/>
      <point x="37" y="715" type="curve"/>
      <point x="47" y="720"/>
      <point x="56" y="724"/>
      <point x="72" y="725" type="curve"/>
      <point x="75" y="731" type="line"/>
      <point x="61" y="733"/>
      <point x="57" y="733"/>
      <point x="44" y="734" type="curve" smooth="yes"/>
      <point x="29" y="734"/>
      <point x="16" y="737"/>
      <point x="12" y="737" type="curve" smooth="yes"/>
      <point x="-13" y="741"/>
      <point x="-31" y="748"/>
      <point x="-42" y="761" type="curve"/>
      <point x="-53" y="772"/>
      <point x="-59" y="788"/>
      <point x="-57" y="808" type="curve" smooth="yes"/>
      <point x="-56" y="835"/>
      <point x="-38" y="856"/>
      <point x="-15" y="871" type="curve" smooth="yes"/>
      <point x="11" y="885"/>
      <point x="46" y="892"/>
      <point x="78" y="888" type="curve"/>
      <point x="81" y="899"/>
      <point x="84" y="911"/>
      <point x="87" y="918" type="curve"/>
      <point x="84" y="918"/>
      <point x="81" y="918"/>
      <point x="78" y="918" type="curve" smooth="yes"/>
      <point x="37" y="918"/>
      <point x="0" y="930"/>
      <point x="-4" y="931" type="curve"/>
      <point x="-14" y="935"/>
      <point x="-20" y="937"/>
      <point x="-30" y="937" type="curve" smooth="yes"/>
      <point x="-39" y="937"/>
      <point x="-46" y="935"/>
      <point x="-51" y="929" type="curve" smooth="yes"/>
      <point x="-57" y="925"/>
      <point x="-62" y="918"/>
      <point x="-70" y="899" type="curve"/>
      <point x="-64" y="895" type="line"/>
      <point x="-60" y="901"/>
      <point x="-52" y="911"/>
      <point x="-32" y="911" type="curve" smooth="yes"/>
      <point x="-15" y="911"/>
      <point x="6" y="903"/>
      <point x="13" y="900" type="curve"/>
      <point x="2" y="898"/>
      <point x="-10" y="894"/>
      <point x="-20" y="887" type="curve" smooth="yes"/>
      <point x="-35" y="879"/>
      <point x="-49" y="867"/>
      <point x="-59" y="853" type="curve"/>
      <point x="-69" y="836"/>
      <point x="-77" y="817"/>
      <point x="-78" y="795" type="curve" smooth="yes"/>
    </contour>
    <contour>
      <point x="3" y="806"/>
      <point x="9" y="799"/>
      <point x="16" y="791" type="curve"/>
      <point x="25" y="799"/>
      <point x="30" y="804"/>
      <point x="36" y="810" type="curve"/>
      <point x="30" y="817"/>
      <point x="23" y="825"/>
      <point x="15" y="830" type="curve"/>
      <point x="9" y="824"/>
      <point x="3" y="815"/>
      <point x="-4" y="811" type="curve"/>
    </contour>
    <contour>
      <point x="4" y="937" type="move" name="top"/>
    </contour>
    <contour>
      <point x="4" y="675" type="move" name="_top"/>
    </contour>
  </outline>
</glyph>
<glyph name="dalVinvertedbelow-ar" format="1">
  <advance width="413"/>
  <unicode hex="075A"/>
  <outline>
    <component base="dal-ar"/>
    <component base="circumflex.below" xOffset="175" yOffset="147"/>
    <contour>
      <point x="206" y="-238" type="move" name="bottom"/>
    </contour>
  </outline>
</glyph>
<glyph name="kasraCurly-ar" format="1">
  <advance width="0"/>
  <unicode hex="08E6"/>
  <outline>
    <contour>
      <point x="18" y="-211" type="line"/>
      <point x="21" y="-214"/>
      <point x="27" y="-221"/>
      <point x="29" y="-227" type="curve" smooth="yes"/>
      <point x="29" y="-231"/>
      <point x="31" y="-245"/>
      <point x="8" y="-262" type="curve" smooth="yes"/>
      <point x="-3" y="-271"/>
      <point x="-28" y="-280"/>
      <point x="-39" y="-296" type="curve" smooth="yes"/>
      <point x="-46" y="-306"/>
      <point x="-49" y="-316"/>
      <point x="-49" y="-326" type="curve" smooth="yes"/>
      <point x="-49" y="-343"/>
      <point x="-42" y="-354"/>
      <point x="-20" y="-371" type="curve"/>
      <point x="-16" y="-363" type="line"/>
      <point x="-21" y="-358"/>
      <point x="-25" y="-353"/>
      <point x="-27" y="-346" type="curve" smooth="yes"/>
      <point x="-32" y="-331"/>
      <point x="-15" y="-315"/>
      <point x="-4" y="-309" type="curve" smooth="yes"/>
      <point x="4" y="-305"/>
      <point x="31" y="-292"/>
      <point x="40" y="-279" type="curve" smooth="yes"/>
      <point x="47" y="-270"/>
      <point x="52" y="-257"/>
      <point x="51" y="-244" type="curve" smooth="yes"/>
      <point x="51" y="-228"/>
      <point x="44" y="-219"/>
      <point x="21" y="-202" type="curve"/>
    </contour>
  </outline>
</glyph>
<glyph name="highwaw-ar" format="1">
  <advance width="0"/>
  <unicode hex="08F3"/>
  <outline>
    <contour>
      <point x="36" y="831"/>
      <point x="35" y="837"/>
      <point x="32" y="842" type="curve" smooth="yes"/>
      <point x="29" y="848"/>
      <point x="23" y="854"/>
      <point x="14" y="854" type="curve" smooth="yes"/>
      <point x="4" y="854"/>
      <point x="-5" y="847"/>
      <point x="-5" y="834" type="curve" smooth="yes"/>
      <point x="-5" y="823"/>
      <point x="6" y="818"/>
      <point x="17" y="818" type="curve" smooth="yes"/>
      <point x="25" y="819"/>
      <point x="30" y="821"/>
      <point x="37" y="827" type="curve" smooth="yes"/>
    </contour>
    <contour>
      <point x="52" y="799"/>
      <point x="53" y="782"/>
      <point x="49" y="764" type="curve" smooth="yes"/>
      <point x="46" y="752"/>
      <point x="43" y="740"/>
      <point x="37" y="727" type="curve" smooth="yes"/>
      <point x="33" y="719"/>
      <point x="25" y="712"/>
      <point x="19" y="707" type="curve" smooth="yes"/>
      <point x="10" y="702"/>
      <point x="3" y="700"/>
      <point x="-6" y="700" type="curve" smooth="yes"/>
      <point x="-15" y="700"/>
      <point x="-23" y="701"/>
      <point x="-30" y="701" type="curve" smooth="yes"/>
      <point x="-35" y="701"/>
      <point x="-42" y="700"/>
      <point x="-49" y="699" type="curve"/>
      <point x="-52" y="703" type="line"/>
      <point x="-46" y="707"/>
      <point x="-27" y="716"/>
      <point x="-9" y="727" type="curve" smooth="yes"/>
      <point x="12" y="738"/>
      <point x="33" y="756"/>
      <point x="39" y="781" type="curve" smooth="yes"/>
      <point x="40" y="789"/>
      <point x="41" y="800"/>
      <point x="40" y="809" type="curve"/>
      <point x="39" y="804"/>
      <point x="33" y="794"/>
      <point x="15" y="794" type="curve" smooth="yes"/>
      <point x="4" y="794"/>
      <point x="-3" y="796"/>
      <point x="-8" y="801" type="curve" smooth="yes"/>
      <point x="-14" y="808"/>
      <point x="-16" y="818"/>
      <point x="-15" y="832" type="curve" smooth="yes"/>
      <point x="-15" y="841"/>
      <point x="-12" y="854"/>
      <point x="-6" y="864" type="curve" smooth="yes"/>
      <point x="0" y="873"/>
      <point x="8" y="880"/>
      <point x="17" y="880" type="curve" smooth="yes"/>
      <point x="34" y="880"/>
      <point x="41" y="860"/>
      <point x="44" y="852" type="curve"/>
      <point x="46" y="846"/>
      <point x="50" y="834"/>
      <point x="52" y="811" type="curve" smooth="yes"/>
    </contour>
    <contour>
      <point x="8" y="880" type="move" name="top"/>
    </contour>
    <contour>
      <point x="3" y="680" type="move" name="_top"/>
    </contour>
  </outline>
</glyph>
<glyph name="kasraDotbelow-ar" format="1">
  <advance width="0"/>
  <unicode hex="08F6"/>
  <outline>
    <contour>
      <point x="-88" y="-302"/>
      <point x="19" y="-255"/>
      <point x="80" y="-235" type="curve"/>
      <point x="84" y="-227"/>
      <point x="87" y="-217"/>
      <point x="88" y="-207" type="curve"/>
      <point x="25" y="-227"/>
      <point x="-25" y="-247"/>
      <point x="-81" y="-275" type="curve"/>
      <point x="-84" y="-281"/>
      <point x="-86" y="-291"/>
      <point x="-88" y="-302" type="curve"/>
    </contour>
    <contour>
      <point x="-17" y="-318"/>
      <point x="-9" y="-326"/>
      <point x="-1" y="-335" type="curve"/>
      <point x="9" y="-326"/>
      <point x="16" y="-319"/>
      <point x="22" y="-312" type="curve"/>
      <point x="16" y="-304"/>
      <point x="6" y="-294"/>
      <point x="-3" y="-288" type="curve"/>
      <point x="-9" y="-295"/>
      <point x="-18" y="-305"/>
      <point x="-26" y="-311" type="curve"/>
    </contour>
    <contour>
      <point x="0" y="-187" type="move" name="_bottom"/>
    </contour>
    <contour>
      <point x="0" y="-335" type="move" name="bottom"/>
    </contour>
  </outline>
</glyph>
<glyph name="whiteInBlackSquare" format="1">
  <advance width="323"/>
  <unicode hex="25A3"/>
  <outline>
    <contour>
      <point x="283" y="243" type="line"/>
      <point x="40" y="243" type="line"/>
      <point x="40" y="0" type="line"/>
      <point x="283" y="0" type="line"/>
    </contour>
    <contour>
      <point x="64" y="219" type="line"/>
      <point x="259" y="219" type="line"/>
      <point x="259" y="24" type="line"/>
      <point x="64" y="24" type="line"/>
    </contour>
    <contour>
      <point x="222" y="182" type="line"/>
      <point x="101" y="182" type="line"/>
      <point x="101" y="61" type="line"/>
      <point x="222" y="61" type="line"/>
    </contour>
  </outline>
</glyph>
<glyph name="hehgoal-ar.fina" format="1">
  <advance width="420"/>
  <unicode hex="FBA7"/>
  <outline>
    <contour>
      <point x="386" y="98" type="line" smooth="yes"/>
      <point x="355" y="98"/>
      <point x="332" y="115"/>
      <point x="315" y="139" type="curve" smooth="yes"/>
      <point x="297" y="165"/>
      <point x="271" y="204"/>
      <point x="232" y="204" type="curve" smooth="yes"/>
      <point x="197" y="204"/>
      <point x="161" y="173"/>
      <point x="123" y="104" type="curve" smooth="yes"/>
      <point x="96" y="55"/>
      <point x="78" y="4"/>
      <point x="70" y="-20" type="curve"/>
      <point x="88" y="-15" type="line"/>
      <point x="92" y="-6"/>
      <point x="106" y="23"/>
      <point x="126" y="56" type="curve" smooth="yes"/>
      <point x="146" y="89"/>
      <point x="175" y="133"/>
      <point x="219" y="133" type="curve" smooth="yes"/>
      <point x="252" y="133"/>
      <point x="266" y="109"/>
      <point x="283" y="76" type="curve" smooth="yes"/>
      <point x="295" y="52"/>
      <point x="302" y="41"/>
      <point x="311" y="31" type="curve" smooth="yes"/>
      <point x="327" y="13"/>
      <point x="347" y="0"/>
      <point x="384" y="0" type="curve" smooth="yes"/>
      <point x="420" y="0" type="line"/>
      <point x="420" y="98" type="line"/>
    </contour>
    <contour>
      <point x="195" y="234" type="move" name="top"/>
    </contour>
    <contour>
      <point x="134" y="-25" type="move" name="bottom"/>
    </contour>
  </outline>
</glyph>
<glyph name="tahbelow-ar" format="1">
  <advance width="0"/>
  <unicode hex="FBC1"/>
  <outline>
    <contour>
      <point x="-54" y="-255" type="line" smooth="yes"/>
      <point x="-50" y="-263"/>
      <point x="-34" y="-299"/>
      <point x="-30" y="-354" type="curve" smooth="yes"/>
      <point x="-41" y="-374" type="line" smooth="yes"/>
      <point x="-70" y="-374" type="line" smooth="yes"/>
      <point x="-60" y="-406" type="line" smooth="yes"/>
      <point x="-18" y="-406" type="line"/>
      <point x="3" y="-406"/>
      <point x="26" y="-397"/>
      <point x="45" y="-384" type="curve"/>
      <point x="63" y="-369"/>
      <point x="74" y="-351"/>
      <point x="74" y="-332" type="curve"/>
      <point x="74" y="-317"/>
      <point x="53" y="-303"/>
      <point x="38" y="-303" type="curve"/>
      <point x="25" y="-303"/>
      <point x="3" y="-311"/>
      <point x="-20" y="-344" type="curve" smooth="yes"/>
      <point x="-19" y="-323"/>
      <point x="-20" y="-316"/>
      <point x="-27" y="-286" type="curve" smooth="yes"/>
      <point x="-28" y="-267"/>
      <point x="-24" y="-264"/>
      <point x="-17" y="-257" type="curve" smooth="yes"/>
      <point x="-26" y="-248"/>
      <point x="-33" y="-239"/>
      <point x="-38" y="-231" type="curve" smooth="yes"/>
    </contour>
    <contour>
      <point x="48" y="-364"/>
      <point x="27" y="-374"/>
      <point x="3" y="-374" type="curve"/>
      <point x="-23" y="-374" type="line" smooth="yes"/>
      <point x="-13" y="-352"/>
      <point x="1" y="-329"/>
      <point x="24" y="-328" type="curve" smooth="yes"/>
      <point x="45" y="-328"/>
      <point x="53" y="-341"/>
      <point x="58" y="-351" type="curve" smooth="yes"/>
    </contour>
    <contour>
      <point x="2" y="-211" type="move" name="_bottom"/>
    </contour>
    <contour>
      <point x="2" y="-406" type="move" name="bottom"/>
    </contour>
  </outline>
</glyph>
<glyph name="lam_meem-ar" format="1">
  <advance width="403"/>
  <unicode hex="FC42"/>
  <outline>
    <contour>
      <point x="343" y="115"/>
      <point x="305" y="141"/>
      <point x="259" y="156" type="curve"/>
      <point x="276" y="170"/>
      <point x="275" y="193"/>
      <point x="270" y="221" type="curve" smooth="yes"/>
      <point x="265" y="250"/>
      <point x="258" y="273"/>
      <point x="252" y="306" type="curve" smooth="yes"/>
      <point x="244" y="346"/>
      <point x="235" y="388"/>
      <point x="234" y="396" type="curve" smooth="yes"/>
      <point x="227" y="445"/>
      <point x="240" y="461"/>
      <point x="267" y="483" type="curve"/>
      <point x="236" y="512"/>
      <point x="217" y="549"/>
      <point x="207" y="568" type="curve"/>
      <point x="157" y="500" type="line"/>
      <point x="172" y="456"/>
      <point x="187" y="395"/>
      <point x="197" y="346" type="curve" smooth="yes"/>
      <point x="207" y="297"/>
      <point x="213" y="260"/>
      <point x="225" y="186" type="curve"/>
      <point x="219" y="170"/>
      <point x="208" y="160"/>
      <point x="184" y="158" type="curve"/>
      <point x="178" y="148"/>
      <point x="170" y="131"/>
      <point x="156" y="101" type="curve"/>
      <point x="122" y="88"/>
      <point x="106" y="78"/>
      <point x="84" y="46" type="curve" smooth="yes"/>
      <point x="64" y="19"/>
      <point x="51" y="-20"/>
      <point x="59" y="-75" type="curve"/>
      <point x="93" y="-281"/>
      <point x="98" y="-353"/>
      <point x="101" y="-380" type="curve"/>
      <point x="134" y="-371" type="line"/>
      <point x="133" y="-285"/>
      <point x="124" y="-208"/>
      <point x="112" y="-97" type="curve" smooth="yes"/>
      <point x="107" y="-48"/>
      <point x="105" y="-42"/>
      <point x="99" y="-5" type="curve"/>
      <point x="115" y="11"/>
      <point x="142" y="32"/>
      <point x="199" y="34" type="curve" smooth="yes"/>
      <point x="251" y="36"/>
      <point x="294" y="25"/>
      <point x="317" y="19" type="curve"/>
      <point x="340" y="51"/>
      <point x="352" y="91"/>
      <point x="357" y="104" type="curve"/>
    </contour>
    <contour>
      <point x="202" y="0" type="move" name="caret_1"/>
    </contour>
    <contour>
      <point x="246" y="-32" type="move" name="bottom_1"/>
    </contour>
    <contour>
      <point x="128" y="568" type="move" name="top_1"/>
    </contour>
    <contour>
      <point x="62" y="188" type="move" name="top_2"/>
    </contour>
    <contour>
      <point x="117" y="-405" type="move" name="bottom_2"/>
    </contour>
  </outline>
</glyph>
<glyph name="kaf_alefMaksura-ar.fina" format="1">
  <advance width="732"/>
  <unicode hex="FC83"/>
  <outline>
    <contour>
      <point x="696" y="98" type="line" smooth="yes"/>
      <point x="632" y="98"/>
      <point x="599" y="140"/>
      <point x="575" y="176" type="curve"/>
      <point x="552" y="208"/>
      <point x="518" y="252"/>
      <point x="486" y="286" type="curve" smooth="yes"/>
      <point x="468" y="306"/>
      <point x="429" y="346"/>
      <point x="405" y="370" type="curve"/>
      <point x="481" y="413"/>
      <point x="572" y="461"/>
      <point x="620" y="480" type="curve"/>
      <point x="628" y="511"/>
      <point x="633" y="538"/>
      <point x="637" y="568" type="curve"/>
      <point x="562" y="533"/>
      <point x="440" y="472"/>
      <point x="365" y="410" type="curve"/>
      <point x="361" y="393"/>
      <point x="357" y="370"/>
      <point x="354" y="341" type="curve"/>
      <point x="382" y="315"/>
      <point x="410" y="283"/>
      <point x="434" y="252" type="curve" smooth="yes"/>
      <point x="455" y="225"/>
      <point x="485" y="186"/>
      <point x="523" y="127" type="curve"/>
      <point x="509" y="92"/>
      <point x="488" y="70"/>
      <point x="467" y="54" type="curve" smooth="yes"/>
      <point x="437" y="33"/>
      <point x="405" y="27"/>
      <point x="387" y="24" type="curve"/>
      <point x="383" y="5"/>
      <point x="382" y="-9"/>
      <point x="379" y="-34" type="curve"/>
      <point x="399" y="-36"/>
      <point x="439" y="-41"/>
      <point x="473" y="-50" type="curve" smooth="yes"/>
      <point x="519" y="-62"/>
      <point x="543" y="-79"/>
      <point x="543" y="-97" type="curve" smooth="yes"/>
      <point x="543" y="-123"/>
      <point x="494" y="-149"/>
      <point x="464" y="-162" type="curve" smooth="yes"/>
      <point x="432" y="-176"/>
      <point x="373" y="-198"/>
      <point x="290" y="-198" type="curve" smooth="yes"/>
      <point x="212" y="-198"/>
      <point x="160" y="-179"/>
      <point x="132" y="-144" type="curve" smooth="yes"/>
      <point x="105" y="-111"/>
      <point x="109" y="-59"/>
      <point x="119" y="-1" type="curve"/>
      <point x="100" y="6" type="line"/>
      <point x="84" y="-35"/>
      <point x="74" y="-83"/>
      <point x="71" y="-117" type="curve" smooth="yes"/>
      <point x="68" y="-151"/>
      <point x="72" y="-179"/>
      <point x="83" y="-205" type="curve" smooth="yes"/>
      <point x="98" y="-241"/>
      <point x="124" y="-267"/>
      <point x="160" y="-285" type="curve" smooth="yes"/>
      <point x="196" y="-303"/>
      <point x="237" y="-311"/>
      <point x="282" y="-311" type="curve" smooth="yes"/>
      <point x="343" y="-311"/>
      <point x="404" y="-296"/>
      <point x="457" y="-268" type="curve" smooth="yes"/>
      <point x="489" y="-251"/>
      <point x="527" y="-223"/>
      <point x="550" y="-196" type="curve" smooth="yes"/>
      <point x="573" y="-169"/>
      <point x="590" y="-134"/>
      <point x="590" y="-98" type="curve" smooth="yes"/>
      <point x="590" y="-48"/>
      <point x="554" y="-20"/>
      <point x="511" y="-7" type="curve"/>
      <point x="534" y="11"/>
      <point x="550" y="44"/>
      <point x="555" y="84" type="curve"/>
      <point x="575" y="57"/>
      <point x="591" y="38"/>
      <point x="608" y="25" type="curve" smooth="yes"/>
      <point x="633" y="6"/>
      <point x="660" y="0"/>
      <point x="697" y="0" type="curve" smooth="yes"/>
      <point x="732" y="0" type="line"/>
      <point x="732" y="98" type="line"/>
    </contour>
    <contour>
      <point x="366" y="0" type="move" name="caret_1"/>
    </contour>
    <contour>
      <point x="533" y="-309" type="move" name="bottom_1"/>
    </contour>
    <contour>
      <point x="464" y="546" type="move" name="top_1"/>
    </contour>
    <contour>
      <point x="234" y="0" type="move" name="top_2"/>
    </contour>
    <contour>
      <point x="282" y="-341" type="move" name="bottom_2"/>
    </contour>
  </outline>
</glyph>
<glyph name="hah_meem-ar.init" format="1">
  <advance width="632"/>
  <unicode hex="FCAA"/>
  <outline>
    <contour>
      <point x="453" y="297"/>
      <point x="399" y="324"/>
      <point x="355" y="347" type="curve" smooth="yes"/>
      <point x="331" y="359"/>
      <point x="309" y="370"/>
      <point x="284" y="375" type="curve" smooth="yes"/>
      <point x="255" y="381"/>
      <point x="230" y="378"/>
      <point x="208" y="366" type="curve" smooth="yes"/>
      <point x="185" y="354"/>
      <point x="165" y="332"/>
      <point x="147" y="301" type="curve"/>
      <point x="158" y="284" type="line"/>
      <point x="169" y="294"/>
      <point x="187" y="316"/>
      <point x="231" y="312" type="curve" smooth="yes"/>
      <point x="261" y="309"/>
      <point x="300" y="292"/>
      <point x="336" y="273" type="curve"/>
      <point x="286" y="271"/>
      <point x="242" y="261"/>
      <point x="201" y="238" type="curve" smooth="yes"/>
      <point x="166" y="218"/>
      <point x="133" y="182"/>
      <point x="102" y="140" type="curve" smooth="yes"/>
      <point x="87" y="121"/>
      <point x="76" y="98"/>
      <point x="43" y="98" type="curve" smooth="yes"/>
      <point x="-22" y="98" type="line" smooth="yes"/>
      <point x="-34" y="98"/>
      <point x="-70" y="89"/>
      <point x="-70" y="49" type="curve" smooth="yes"/>
      <point x="-70" y="19"/>
      <point x="-45" y="0"/>
      <point x="-22" y="0" type="curve" smooth="yes"/>
      <point x="9" y="0" type="line" smooth="yes"/>
      <point x="50" y="0"/>
      <point x="76" y="10"/>
      <point x="90" y="48" type="curve"/>
      <point x="126" y="-2"/>
      <point x="229" y="-18"/>
      <point x="244" y="-12" type="curve"/>
      <point x="261" y="0"/>
      <point x="288" y="45"/>
      <point x="287" y="83" type="curve" smooth="yes"/>
      <point x="287" y="124"/>
      <point x="267" y="167"/>
      <point x="230" y="185" type="curve"/>
      <point x="262" y="209"/>
      <point x="312" y="220"/>
      <point x="364" y="223" type="curve" smooth="yes"/>
      <point x="415" y="225"/>
      <point x="469" y="219"/>
      <point x="511" y="209" type="curve"/>
      <point x="536" y="233"/>
      <point x="546" y="255"/>
      <point x="562" y="280" type="curve"/>
    </contour>
    <contour>
      <point x="186" y="71"/>
      <point x="165" y="81"/>
      <point x="129" y="102" type="curve" smooth="yes"/>
      <point x="136" y="118"/>
      <point x="155" y="142"/>
      <point x="182" y="142" type="curve" smooth="yes"/>
      <point x="216" y="142"/>
      <point x="244" y="106"/>
      <point x="233" y="60" type="curve"/>
    </contour>
    <contour>
      <point x="311" y="0" type="move" name="caret_1"/>
    </contour>
    <contour>
      <point x="422" y="150" type="move" name="bottom_1"/>
    </contour>
    <contour>
      <point x="304" y="405" type="move" name="top_1"/>
    </contour>
    <contour>
      <point x="43" y="278" type="move" name="top_2"/>
    </contour>
    <contour>
      <point x="129" y="-35" type="move" name="bottom_2"/>
    </contour>
  </outline>
</glyph>
<glyph name="lam_heh-ar.init" format="1">
  <advance width="438"/>
  <unicode hex="FCCD"/>
  <outline>
    <contour>
      <point x="358" y="156"/>
      <point x="348" y="181"/>
      <point x="328" y="203" type="curve" smooth="yes"/>
      <point x="309" y="223"/>
      <point x="285" y="239"/>
      <point x="262" y="254" type="curve" smooth="yes"/>
      <point x="228" y="277"/>
      <point x="199" y="292"/>
      <point x="189" y="330" type="curve"/>
      <point x="183" y="349"/>
      <point x="179" y="360"/>
      <point x="174" y="389" type="curve" smooth="yes"/>
      <point x="167" y="430"/>
      <point x="177" y="463"/>
      <point x="201" y="482" type="curve"/>
      <point x="174" y="510"/>
      <point x="149" y="549"/>
      <point x="139" y="567" type="curve"/>
      <point x="83" y="491" type="line"/>
      <point x="98" y="466"/>
      <point x="135" y="321"/>
      <point x="140" y="282" type="curve"/>
      <point x="98" y="264"/>
      <point x="70" y="245"/>
      <point x="48" y="202" type="curve" smooth="yes"/>
      <point x="29" y="165"/>
      <point x="34" y="140"/>
      <point x="52" y="98" type="curve"/>
      <point x="-21" y="98" type="line" smooth="yes"/>
      <point x="-48" y="98"/>
      <point x="-70" y="76"/>
      <point x="-70" y="49" type="curve" smooth="yes"/>
      <point x="-70" y="21"/>
      <point x="-49" y="0"/>
      <point x="-21" y="0" type="curve" smooth="yes"/>
      <point x="28" y="0" type="line" smooth="yes"/>
      <point x="83" y="0"/>
      <point x="117" y="14"/>
      <point x="145" y="47" type="curve"/>
      <point x="197" y="30"/>
      <point x="228" y="19"/>
      <point x="278" y="-7" type="curve"/>
      <point x="292" y="8"/>
      <point x="311" y="27"/>
      <point x="324" y="41" type="curve" smooth="yes"/>
      <point x="345" y="64"/>
      <point x="358" y="97"/>
      <point x="358" y="129" type="curve" smooth="yes"/>
    </contour>
    <contour>
      <point x="195" y="168"/>
      <point x="188" y="156"/>
      <point x="177" y="147" type="curve" smooth="yes"/>
      <point x="166" y="138"/>
      <point x="152" y="132"/>
      <point x="137" y="132" type="curve" smooth="yes"/>
      <point x="126" y="132"/>
      <point x="108" y="140"/>
      <point x="94" y="150" type="curve" smooth="yes"/>
      <point x="82" y="159"/>
      <point x="72" y="170"/>
      <point x="72" y="178" type="curve" smooth="yes"/>
      <point x="72" y="188"/>
      <point x="87" y="206"/>
      <point x="105" y="221" type="curve" smooth="yes"/>
      <point x="120" y="234"/>
      <point x="137" y="244"/>
      <point x="150" y="244" type="curve" smooth="yes"/>
      <point x="161" y="244"/>
      <point x="172" y="234"/>
      <point x="180" y="221" type="curve" smooth="yes"/>
      <point x="189" y="208"/>
      <point x="195" y="191"/>
      <point x="195" y="180" type="curve" smooth="yes"/>
    </contour>
    <contour>
      <point x="282" y="92"/>
      <point x="218" y="107"/>
      <point x="198" y="113" type="curve"/>
      <point x="211" y="127"/>
      <point x="221" y="144"/>
      <point x="226" y="163" type="curve" smooth="yes"/>
      <point x="230" y="183"/>
      <point x="229" y="204"/>
      <point x="220" y="226" type="curve"/>
      <point x="253" y="198"/>
      <point x="264" y="190"/>
      <point x="287" y="169" type="curve" smooth="yes"/>
      <point x="308" y="150"/>
      <point x="316" y="111"/>
      <point x="289" y="90" type="curve"/>
    </contour>
    <contour>
      <point x="209" y="0" type="move" name="caret_1"/>
    </contour>
    <contour>
      <point x="275" y="-93" type="move" name="bottom_1"/>
    </contour>
    <contour>
      <point x="260" y="568" type="move" name="top_1"/>
    </contour>
    <contour>
      <point x="19" y="568" type="move" name="top_2"/>
    </contour>
    <contour>
      <point x="84" y="-26" type="move" name="bottom_2"/>
    </contour>
  </outline>
</glyph>
<glyph name="ain_alefMaksura-ar" format="1">
  <advance width="879"/>
  <unicode hex="FCF7"/>
  <outline>
    <contour>
      <point x="639" y="385"/>
      <point x="602" y="368"/>
      <point x="572" y="341" type="curve" smooth="yes"/>
      <point x="542" y="313"/>
      <point x="519" y="275"/>
      <point x="519" y="232" type="curve" smooth="yes"/>
      <point x="519" y="189"/>
      <point x="535" y="168"/>
      <point x="571" y="139" type="curve" smooth="yes"/>
      <point x="516" y="115"/>
      <point x="461" y="84"/>
      <point x="447" y="67" type="curve" smooth="yes"/>
      <point x="436" y="54"/>
      <point x="426" y="29"/>
      <point x="420" y="-6" type="curve"/>
      <point x="500" y="-17"/>
      <point x="543" y="-49"/>
      <point x="543" y="-70" type="curve" smooth="yes"/>
      <point x="543" y="-93"/>
      <point x="491" y="-120"/>
      <point x="463" y="-132" type="curve" smooth="yes"/>
      <point x="440" y="-142"/>
      <point x="371" y="-169"/>
      <point x="289" y="-169" type="curve" smooth="yes"/>
      <point x="214" y="-169"/>
      <point x="158" y="-146"/>
      <point x="132" y="-114" type="curve" smooth="yes"/>
      <point x="105" y="-81"/>
      <point x="109" y="-29"/>
      <point x="119" y="29" type="curve"/>
      <point x="100" y="36" type="line"/>
      <point x="84" y="-5"/>
      <point x="74" y="-53"/>
      <point x="71" y="-87" type="curve" smooth="yes"/>
      <point x="68" y="-121"/>
      <point x="72" y="-149"/>
      <point x="83" y="-175" type="curve" smooth="yes"/>
      <point x="98" y="-211"/>
      <point x="124" y="-237"/>
      <point x="160" y="-255" type="curve" smooth="yes"/>
      <point x="196" y="-273"/>
      <point x="237" y="-281"/>
      <point x="282" y="-281" type="curve" smooth="yes"/>
      <point x="343" y="-281"/>
      <point x="404" y="-266"/>
      <point x="457" y="-238" type="curve" smooth="yes"/>
      <point x="491" y="-220"/>
      <point x="524" y="-196"/>
      <point x="550" y="-165" type="curve" smooth="yes"/>
      <point x="574" y="-137"/>
      <point x="590" y="-103"/>
      <point x="590" y="-65" type="curve" smooth="yes"/>
      <point x="590" y="5"/>
      <point x="540" y="25"/>
      <point x="496" y="37" type="curve"/>
      <point x="570" y="75"/>
      <point x="681" y="122"/>
      <point x="794" y="156" type="curve"/>
      <point x="805" y="177"/>
      <point x="810" y="191"/>
      <point x="819" y="217" type="curve"/>
      <point x="783" y="212"/>
      <point x="727" y="197"/>
      <point x="657" y="175" type="curve" smooth="yes"/>
      <point x="608" y="201"/>
      <point x="576" y="231"/>
      <point x="570" y="285" type="curve"/>
      <point x="602" y="308"/>
      <point x="630" y="320"/>
      <point x="677" y="320" type="curve" smooth="yes"/>
      <point x="718" y="320"/>
      <point x="751" y="309"/>
      <point x="763" y="304" type="curve"/>
      <point x="782" y="322" type="line"/>
      <point x="770" y="339"/>
      <point x="721" y="385"/>
      <point x="670" y="385" type="curve" smooth="yes"/>
    </contour>
    <contour>
      <point x="440" y="0" type="move" name="caret_1"/>
    </contour>
    <contour>
      <point x="592" y="-251" type="move" name="bottom_1"/>
    </contour>
    <contour>
      <point x="670" y="410" type="move" name="top_1"/>
    </contour>
    <contour>
      <point x="246" y="11" type="move" name="top_2"/>
    </contour>
    <contour>
      <point x="282" y="-311" type="move" name="bottom_2"/>
    </contour>
  </outline>
</glyph>
<glyph name="hah-ar.init" format="1">
  <advance width="557"/>
  <unicode hex="FEA3"/>
  <outline>
    <contour>
      <point x="486" y="229"/>
      <point x="475" y="229"/>
      <point x="464" y="229" type="curve" smooth="yes"/>
      <point x="349" y="229"/>
      <point x="279" y="257"/>
      <point x="226" y="278" type="curve" smooth="yes"/>
      <point x="194" y="291"/>
      <point x="168" y="301"/>
      <point x="142" y="301" type="curve" smooth="yes"/>
      <point x="115" y="301"/>
      <point x="91" y="290"/>
      <point x="71" y="268" type="curve" smooth="yes"/>
      <point x="53" y="248"/>
      <point x="38" y="220"/>
      <point x="27" y="184" type="curve"/>
      <point x="43" y="173" type="line"/>
      <point x="61" y="203"/>
      <point x="69" y="219"/>
      <point x="105" y="222" type="curve" smooth="yes"/>
      <point x="166" y="228"/>
      <point x="274" y="182"/>
      <point x="313" y="169" type="curve" smooth="yes"/>
      <point x="313" y="169"/>
      <point x="279" y="145"/>
      <point x="229" y="128" type="curve" smooth="yes"/>
      <point x="193" y="116"/>
      <point x="117" y="98"/>
      <point x="27" y="98" type="curve" smooth="yes"/>
      <point x="-21" y="98" type="line" smooth="yes"/>
      <point x="-49" y="98"/>
      <point x="-70" y="76"/>
      <point x="-70" y="49" type="curve" smooth="yes"/>
      <point x="-70" y="24"/>
      <point x="-52" y="0"/>
      <point x="-21" y="0" type="curve" smooth="yes"/>
      <point x="32" y="0" type="line" smooth="yes"/>
      <point x="132" y="0"/>
      <point x="193" y="36"/>
      <point x="252" y="71" type="curve" smooth="yes"/>
      <point x="307" y="104"/>
      <point x="365" y="138"/>
      <point x="453" y="139" type="curve"/>
      <point x="471" y="172"/>
      <point x="483" y="196"/>
      <point x="497" y="229" type="curve"/>
    </contour>
    <contour>
      <point x="162" y="331" type="move" name="top"/>
    </contour>
    <contour>
      <point x="172" y="-24" type="move" name="bottom"/>
    </contour>
  </outline>
</glyph>
<glyph name="hah-ar.medi" format="1">
  <advance width="619"/>
  <unicode hex="FEA4"/>
  <outline>
    <contour>
      <point x="468" y="257"/>
      <point x="458" y="256"/>
      <point x="440" y="256" type="curve" smooth="yes"/>
      <point x="327" y="256"/>
      <point x="274" y="283"/>
      <point x="225" y="301" type="curve" smooth="yes"/>
      <point x="190" y="314"/>
      <point x="167" y="322"/>
      <point x="143" y="322" type="curve" smooth="yes"/>
      <point x="115" y="322"/>
      <point x="91" y="311"/>
      <point x="71" y="289" type="curve" smooth="yes"/>
      <point x="53" y="269"/>
      <point x="38" y="241"/>
      <point x="27" y="205" type="curve"/>
      <point x="43" y="194" type="line"/>
      <point x="62" y="221"/>
      <point x="68" y="241"/>
      <point x="105" y="243" type="curve" smooth="yes"/>
      <point x="175" y="247"/>
      <point x="283" y="201"/>
      <point x="311" y="191" type="curve"/>
      <point x="291" y="172"/>
      <point x="276" y="160"/>
      <point x="229" y="139" type="curve" smooth="yes"/>
      <point x="188" y="121"/>
      <point x="118" y="98"/>
      <point x="26" y="98" type="curve" smooth="yes"/>
      <point x="-21" y="98" type="line" smooth="yes"/>
      <point x="-48" y="98"/>
      <point x="-70" y="76"/>
      <point x="-70" y="49" type="curve" smooth="yes"/>
      <point x="-70" y="23"/>
      <point x="-49" y="0"/>
      <point x="-21" y="0" type="curve" smooth="yes"/>
      <point x="31" y="0" type="line" smooth="yes"/>
      <point x="84" y="0"/>
      <point x="133" y="13"/>
      <point x="183" y="38" type="curve" smooth="yes"/>
      <point x="237" y="66"/>
      <point x="278" y="102"/>
      <point x="313" y="127" type="curve" smooth="yes"/>
      <point x="332" y="140"/>
      <point x="349" y="151"/>
      <point x="365" y="154" type="curve"/>
      <point x="364" y="113"/>
      <point x="369" y="81"/>
      <point x="390" y="51" type="curve" smooth="yes"/>
      <point x="414" y="17"/>
      <point x="457" y="0"/>
      <point x="507" y="0" type="curve" smooth="yes"/>
      <point x="619" y="0" type="line"/>
      <point x="619" y="98" type="line"/>
      <point x="496" y="98" type="line" smooth="yes"/>
      <point x="437" y="98"/>
      <point x="401" y="112"/>
      <point x="396" y="159" type="curve"/>
      <point x="401" y="161"/>
      <point x="427" y="164"/>
      <point x="441" y="161" type="curve"/>
      <point x="458" y="193"/>
      <point x="471" y="223"/>
      <point x="485" y="257" type="curve"/>
    </contour>
    <contour>
      <point x="163" y="352" type="move" name="top"/>
    </contour>
    <contour>
      <point x="153" y="-25" type="move" name="bottom"/>
    </contour>
  </outline>
</glyph>
<glyph name="dal-ar.fina" format="1">
  <advance width="503"/>
  <unicode hex="FEAA"/>
  <outline>
    <contour>
      <point x="295" y="360"/>
      <point x="278" y="341"/>
      <point x="262" y="319" type="curve"/>
      <point x="296" y="198" type="line"/>
      <point x="291" y="155"/>
      <point x="268" y="92"/>
      <point x="193" y="92" type="curve" smooth="yes"/>
      <point x="159" y="92" type="line" smooth="yes"/>
      <point x="125" y="92"/>
      <point x="100" y="101"/>
      <point x="83" y="119" type="curve" smooth="yes"/>
      <point x="71" y="132"/>
      <point x="64" y="149"/>
      <point x="62" y="170" type="curve"/>
      <point x="45" y="166" type="line"/>
      <point x="31" y="92"/>
      <point x="52" y="52"/>
      <point x="65" y="35" type="curve" smooth="yes"/>
      <point x="87" y="9"/>
      <point x="123" y="-5"/>
      <point x="172" y="-5" type="curve" smooth="yes"/>
      <point x="309" y="-5"/>
      <point x="324" y="97"/>
      <point x="328" y="116" type="curve"/>
      <point x="338" y="76"/>
      <point x="349" y="56"/>
      <point x="374" y="33" type="curve" smooth="yes"/>
      <point x="397" y="11"/>
      <point x="429" y="0"/>
      <point x="471" y="0" type="curve" smooth="yes"/>
      <point x="503" y="0" type="line"/>
      <point x="503" y="98" type="line"/>
      <point x="472" y="98" type="line" smooth="yes"/>
      <point x="414" y="98"/>
      <point x="383" y="128"/>
      <point x="359" y="203" type="curve"/>
      <point x="309" y="374" type="line"/>
    </contour>
    <contour>
      <point x="250" y="384" type="move" name="top"/>
    </contour>
    <contour>
      <point x="177" y="-29" type="move" name="bottom"/>
    </contour>
  </outline>
</glyph>
<glyph name="kaf-ar.fina" format="1">
  <advance width="833"/>
  <unicode hex="FEDA"/>
  <outline>
    <contour>
      <point x="782" y="98" type="line" smooth="yes"/>
      <point x="755" y="98"/>
      <point x="734" y="107"/>
      <point x="719" y="125" type="curve"/>
      <point x="708" y="139"/>
      <point x="702" y="162"/>
      <point x="700" y="178" type="curve" smooth="yes"/>
      <point x="682" y="325"/>
      <point x="672" y="430"/>
      <point x="659" y="568" type="curve"/>
      <point x="636" y="547"/>
      <point x="619" y="529"/>
      <point x="598" y="497" type="curve"/>
      <point x="622" y="360"/>
      <point x="632" y="272"/>
      <point x="643" y="188" type="curve"/>
      <point x="644" y="176" type="line" smooth="yes"/>
      <point x="646" y="157"/>
      <point x="641" y="138"/>
      <point x="627" y="122" type="curve" smooth="yes"/>
      <point x="613" y="106"/>
      <point x="591" y="95"/>
      <point x="563" y="95" type="curve" smooth="yes"/>
      <point x="407" y="93" type="line" smooth="yes"/>
      <point x="341" y="92"/>
      <point x="274" y="94"/>
      <point x="229" y="101" type="curve" smooth="yes"/>
      <point x="174" y="109"/>
      <point x="133" y="128"/>
      <point x="113" y="159" type="curve" smooth="yes"/>
      <point x="104" y="173"/>
      <point x="96" y="194"/>
      <point x="92" y="219" type="curve"/>
      <point x="73" y="226" type="line"/>
      <point x="68" y="183"/>
      <point x="69" y="145"/>
      <point x="77" y="115" type="curve" smooth="yes"/>
      <point x="83" y="92"/>
      <point x="95" y="69"/>
      <point x="119" y="49" type="curve" smooth="yes"/>
      <point x="138" y="33"/>
      <point x="173" y="12"/>
      <point x="231" y="2" type="curve" smooth="yes"/>
      <point x="266" y="-4"/>
      <point x="305" y="-6"/>
      <point x="358" y="-6" type="curve" smooth="yes"/>
      <point x="395" y="-6"/>
      <point x="534" y="-5"/>
      <point x="586" y="-4" type="curve"/>
      <point x="648" y="-2"/>
      <point x="689" y="26"/>
      <point x="692" y="82" type="curve"/>
      <point x="703" y="26"/>
      <point x="738" y="0"/>
      <point x="795" y="0" type="curve" smooth="yes"/>
      <point x="833" y="0" type="line"/>
      <point x="833" y="98" type="line"/>
    </contour>
    <contour>
      <point x="457" y="240"/>
      <point x="442" y="241"/>
      <point x="410" y="241" type="curve" smooth="yes"/>
      <point x="384" y="241"/>
      <point x="360" y="246"/>
      <point x="360" y="265" type="curve"/>
      <point x="377" y="279"/>
      <point x="399" y="289"/>
      <point x="424" y="297" type="curve"/>
      <point x="432" y="307"/>
      <point x="438" y="316"/>
      <point x="443" y="327" type="curve"/>
      <point x="430" y="324"/>
      <point x="406" y="316"/>
      <point x="384" y="304" type="curve" smooth="yes"/>
      <point x="352" y="287"/>
      <point x="336" y="267"/>
      <point x="336" y="243" type="curve" smooth="yes"/>
      <point x="336" y="228"/>
      <point x="349" y="216"/>
      <point x="384" y="214" type="curve" smooth="yes"/>
      <point x="412" y="212"/>
      <point x="423" y="210"/>
      <point x="423" y="203" type="curve" smooth="yes"/>
      <point x="423" y="183"/>
      <point x="346" y="163"/>
      <point x="300" y="149" type="curve"/>
      <point x="330" y="147"/>
      <point x="362" y="148"/>
      <point x="396" y="152" type="curve"/>
      <point x="440" y="178"/>
      <point x="457" y="197"/>
      <point x="457" y="219" type="curve" smooth="yes"/>
    </contour>
    <contour>
      <point x="390" y="347" type="move" name="top"/>
    </contour>
    <contour>
      <point x="395" y="-35" type="move" name="bottom"/>
    </contour>
  </outline>
</glyph>
<glyph name="TahSmallTwoDotscenter-ar" format="1">
  <advance width="0"/>
  <outline>
    <contour>
      <point x="29" y="282"/>
      <point x="13" y="266"/>
      <point x="-1" y="252" type="curve"/>
      <point x="-14" y="267"/>
      <point x="-31" y="285"/>
      <point x="-47" y="295" type="curve"/>
      <point x="-61" y="280"/>
      <point x="-83" y="258"/>
      <point x="-99" y="242" type="curve"/>
      <point x="-79" y="226"/>
      <point x="-62" y="210"/>
      <point x="-43" y="188" type="curve"/>
      <point x="-24" y="205"/>
      <point x="-10" y="219"/>
      <point x="1" y="232" type="curve"/>
      <point x="16" y="219"/>
      <point x="30" y="205"/>
      <point x="44" y="188" type="curve"/>
      <point x="68" y="210"/>
      <point x="82" y="224"/>
      <point x="96" y="240" type="curve"/>
      <point x="84" y="258"/>
      <point x="61" y="281"/>
      <point x="40" y="295" type="curve"/>
    </contour>
    <contour>
      <point x="-53" y="464" type="line" smooth="yes"/>
      <point x="-49" y="456"/>
      <point x="-33" y="420"/>
      <point x="-29" y="365" type="curve" smooth="yes"/>
      <point x="-40" y="345" type="line" smooth="yes"/>
      <point x="-69" y="345" type="line" smooth="yes"/>
      <point x="-59" y="313" type="line" smooth="yes"/>
      <point x="-17" y="313" type="line"/>
      <point x="4" y="313"/>
      <point x="27" y="322"/>
      <point x="46" y="335" type="curve"/>
      <point x="64" y="350"/>
      <point x="75" y="368"/>
      <point x="75" y="387" type="curve"/>
      <point x="75" y="402"/>
      <point x="54" y="416"/>
      <point x="39" y="416" type="curve"/>
      <point x="26" y="416"/>
      <point x="4" y="408"/>
      <point x="-19" y="375" type="curve" smooth="yes"/>
      <point x="-18" y="396"/>
      <point x="-19" y="403"/>
      <point x="-26" y="433" type="curve" smooth="yes"/>
      <point x="-27" y="452"/>
      <point x="-23" y="455"/>
      <point x="-16" y="462" type="curve" smooth="yes"/>
      <point x="-25" y="471"/>
      <point x="-32" y="480"/>
      <point x="-37" y="488" type="curve" smooth="yes"/>
    </contour>
    <contour>
      <point x="49" y="355"/>
      <point x="28" y="345"/>
      <point x="4" y="345" type="curve"/>
      <point x="-22" y="345" type="line" smooth="yes"/>
      <point x="-12" y="367"/>
      <point x="2" y="390"/>
      <point x="25" y="391" type="curve" smooth="yes"/>
      <point x="46" y="391"/>
      <point x="54" y="378"/>
      <point x="59" y="368" type="curve" smooth="yes"/>
    </contour>
    <contour>
      <point x="4" y="333" type="move" name="_center"/>
    </contour>
  </outline>
</glyph>
<glyph name="alef-ar.fina.short" format="1">
  <advance width="262"/>
  <outline>
    <contour>
      <point x="207" y="98" type="line" smooth="yes"/>
      <point x="179" y="98"/>
      <point x="158" y="106"/>
      <point x="144" y="122" type="curve" smooth="yes"/>
      <point x="133" y="135"/>
      <point x="127" y="154"/>
      <point x="126" y="178" type="curve" smooth="yes"/>
      <point x="116" y="499" type="line"/>
      <point x="105" y="499" type="line"/>
      <point x="95" y="485"/>
      <point x="68" y="449"/>
      <point x="50" y="419" type="curve"/>
      <point x="59" y="362"/>
      <point x="69" y="202"/>
      <point x="71" y="146" type="curve" smooth="yes"/>
      <point x="73" y="102"/>
      <point x="83" y="65"/>
      <point x="103" y="38" type="curve" smooth="yes"/>
      <point x="122" y="13"/>
      <point x="151" y="0"/>
      <point x="189" y="0" type="curve" smooth="yes"/>
      <point x="262" y="0" type="line"/>
      <point x="262" y="98" type="line"/>
    </contour>
    <contour>
      <point x="107" y="611" type="move" name="top"/>
    </contour>
    <contour>
      <point x="95" y="-24" type="move" name="bottom"/>
    </contour>
  </outline>
</glyph>
<glyph name="alef-ar.short" format="1">
  <advance width="155"/>
  <outline>
    <contour>
      <point x="30" y="415"/>
      <point x="35" y="362"/>
      <point x="45" y="289" type="curve" smooth="yes"/>
      <point x="53" y="231"/>
      <point x="58" y="195"/>
      <point x="61" y="166" type="curve" smooth="yes"/>
      <point x="64" y="138"/>
      <point x="67" y="117"/>
      <point x="68" y="101" type="curve" smooth="yes"/>
      <point x="70" y="67"/>
      <point x="72" y="25"/>
      <point x="70" y="0" type="curve"/>
      <point x="85" y="0" type="line"/>
      <point x="92" y="19"/>
      <point x="96" y="34"/>
      <point x="100" y="48" type="curve" smooth="yes"/>
      <point x="114" y="101"/>
      <point x="124" y="135"/>
      <point x="104" y="355" type="curve" smooth="yes"/>
      <point x="103" y="367"/>
      <point x="100" y="394"/>
      <point x="100" y="399" type="curve" smooth="yes"/>
      <point x="96" y="437"/>
      <point x="92" y="467"/>
      <point x="93" y="500" type="curve"/>
      <point x="82" y="500" type="line"/>
      <point x="63" y="479"/>
      <point x="48" y="458"/>
      <point x="30" y="426" type="curve"/>
    </contour>
    <contour>
      <point x="84" y="610" type="move" name="top"/>
    </contour>
    <contour>
      <point x="77" y="-26" type="move" name="bottom"/>
    </contour>
  </outline>
</glyph>
<glyph name="dotlessbeh_noonghunna-ar.fina" format="1">
  <advance width="871"/>
  <outline>
    <contour>
      <point x="836" y="98" type="line" smooth="yes"/>
      <point x="779" y="98"/>
      <point x="754" y="124"/>
      <point x="745" y="166" type="curve" smooth="yes"/>
      <point x="738" y="196"/>
      <point x="739" y="235"/>
      <point x="742" y="279" type="curve"/>
      <point x="720" y="267" type="line"/>
      <point x="718" y="241"/>
      <point x="703" y="220"/>
      <point x="681" y="206" type="curve" smooth="yes"/>
      <point x="659" y="191"/>
      <point x="628" y="182"/>
      <point x="595" y="183" type="curve" smooth="yes"/>
      <point x="562" y="184"/>
      <point x="533" y="191"/>
      <point x="506" y="206" type="curve" smooth="yes"/>
      <point x="490" y="215"/>
      <point x="474" y="227"/>
      <point x="459" y="243" type="curve"/>
      <point x="445" y="225"/>
      <point x="430" y="204"/>
      <point x="416" y="179" type="curve"/>
      <point x="461" y="104"/>
      <point x="487" y="54"/>
      <point x="487" y="21" type="curve" smooth="yes"/>
      <point x="487" y="-10"/>
      <point x="463" y="-37"/>
      <point x="431" y="-55" type="curve" smooth="yes"/>
      <point x="401" y="-72"/>
      <point x="353" y="-87"/>
      <point x="290" y="-87" type="curve" smooth="yes"/>
      <point x="254" y="-87"/>
      <point x="221" y="-82"/>
      <point x="195" y="-73" type="curve" smooth="yes"/>
      <point x="163" y="-62"/>
      <point x="143" y="-48"/>
      <point x="130" y="-28" type="curve" smooth="yes"/>
      <point x="109" y="3"/>
      <point x="109" y="46"/>
      <point x="119" y="100" type="curve"/>
      <point x="100" y="107" type="line"/>
      <point x="83" y="66"/>
      <point x="74" y="28"/>
      <point x="71" y="-6" type="curve" smooth="yes"/>
      <point x="68" y="-38"/>
      <point x="72" y="-69"/>
      <point x="83" y="-95" type="curve" smooth="yes"/>
      <point x="96" y="-125"/>
      <point x="117" y="-151"/>
      <point x="156" y="-172" type="curve" smooth="yes"/>
      <point x="190" y="-190"/>
      <point x="230" y="-200"/>
      <point x="282" y="-200" type="curve" smooth="yes"/>
      <point x="318" y="-200"/>
      <point x="348" y="-195"/>
      <point x="369" y="-189" type="curve" smooth="yes"/>
      <point x="408" y="-178"/>
      <point x="449" y="-153"/>
      <point x="476" y="-124" type="curve" smooth="yes"/>
      <point x="537" y="-59"/>
      <point x="541" y="43"/>
      <point x="523" y="113" type="curve"/>
      <point x="533" y="98"/>
      <point x="565" y="89"/>
      <point x="600" y="89" type="curve" smooth="yes"/>
      <point x="650" y="89"/>
      <point x="686" y="113"/>
      <point x="706" y="160" type="curve"/>
      <point x="699" y="114"/>
      <point x="705" y="73"/>
      <point x="727" y="44" type="curve" smooth="yes"/>
      <point x="748" y="16"/>
      <point x="782" y="0"/>
      <point x="832" y="0" type="curve" smooth="yes"/>
      <point x="871" y="0" type="line"/>
      <point x="871" y="98" type="line"/>
    </contour>
    <contour>
      <point x="436" y="0" type="move" name="caret_1"/>
    </contour>
    <contour>
      <point x="648" y="-25" type="move" name="bottom_1"/>
    </contour>
    <contour>
      <point x="593" y="279" type="move" name="top_1"/>
    </contour>
    <contour>
      <point x="276" y="31" type="move" name="top_2"/>
    </contour>
    <contour>
      <point x="282" y="-230" type="move" name="bottom_2"/>
    </contour>
  </outline>
</glyph>
<glyph name="fourdotscenter-ar" format="1">
  <advance width="0"/>
  <outline>
    <contour>
      <point x="-78" y="226"/>
      <point x="-61" y="210"/>
      <point x="-42" y="188" type="curve"/>
      <point x="-23" y="205"/>
      <point x="-9" y="219"/>
      <point x="2" y="232" type="curve"/>
      <point x="17" y="219"/>
      <point x="31" y="205"/>
      <point x="45" y="188" type="curve"/>
      <point x="69" y="210"/>
      <point x="83" y="224"/>
      <point x="97" y="240" type="curve"/>
      <point x="87" y="256"/>
      <point x="67" y="275"/>
      <point x="48" y="289" type="curve"/>
      <point x="71" y="310"/>
      <point x="84" y="323"/>
      <point x="97" y="339" type="curve"/>
      <point x="85" y="357"/>
      <point x="62" y="380"/>
      <point x="41" y="394" type="curve"/>
      <point x="30" y="381"/>
      <point x="14" y="365"/>
      <point x="0" y="351" type="curve"/>
      <point x="-13" y="366"/>
      <point x="-30" y="384"/>
      <point x="-46" y="394" type="curve"/>
      <point x="-60" y="379"/>
      <point x="-82" y="357"/>
      <point x="-98" y="341" type="curve"/>
      <point x="-80" y="326"/>
      <point x="-64" y="312"/>
      <point x="-47" y="293" type="curve"/>
      <point x="-61" y="278"/>
      <point x="-82" y="257"/>
      <point x="-98" y="242" type="curve"/>
    </contour>
    <contour>
      <point x="-21" y="305"/>
      <point x="-8" y="318"/>
      <point x="2" y="331" type="curve"/>
      <point x="15" y="319"/>
      <point x="28" y="307"/>
      <point x="40" y="293" type="curve"/>
      <point x="29" y="280"/>
      <point x="14" y="265"/>
      <point x="0" y="252" type="curve"/>
      <point x="-11" y="264"/>
      <point x="-25" y="279"/>
      <point x="-38" y="290" type="curve"/>
    </contour>
    <contour>
      <point x="-1" y="301" type="move" name="_center"/>
    </contour>
  </outline>
</glyph>
<glyph name="gaf-ar.fina.001" format="1">
  <advance width="907"/>
  <outline>
    <contour>
      <point x="804" y="98" type="line"/>
      <point x="803" y="129"/>
      <point x="794" y="177"/>
      <point x="768" y="213" type="curve" smooth="yes"/>
      <point x="733" y="258"/>
      <point x="677" y="281"/>
      <point x="599" y="281" type="curve" smooth="yes"/>
      <point x="561" y="281"/>
      <point x="416" y="276"/>
      <point x="384" y="276" type="curve" smooth="yes"/>
      <point x="364" y="276"/>
      <point x="343" y="278"/>
      <point x="325" y="283" type="curve"/>
      <point x="293" y="289"/>
      <point x="271" y="306"/>
      <point x="268" y="329" type="curve"/>
      <point x="305" y="367"/>
      <point x="370" y="399"/>
      <point x="426" y="416" type="curve"/>
      <point x="434" y="444"/>
      <point x="440" y="471"/>
      <point x="443" y="500" type="curve"/>
      <point x="358" y="468"/>
      <point x="307" y="425"/>
      <point x="280" y="394" type="curve" smooth="yes"/>
      <point x="248" y="357"/>
      <point x="229" y="316"/>
      <point x="229" y="284" type="curve" smooth="yes"/>
      <point x="229" y="265"/>
      <point x="236" y="250"/>
      <point x="249" y="237" type="curve" smooth="yes"/>
      <point x="264" y="222"/>
      <point x="289" y="211"/>
      <point x="321" y="205" type="curve" smooth="yes"/>
      <point x="343" y="201"/>
      <point x="363" y="200"/>
      <point x="374" y="200" type="curve" smooth="yes"/>
      <point x="406" y="200"/>
      <point x="571" y="206"/>
      <point x="630" y="206" type="curve" smooth="yes"/>
      <point x="682" y="206"/>
      <point x="718" y="183"/>
      <point x="739" y="163" type="curve" smooth="yes"/>
      <point x="755" y="148"/>
      <point x="759" y="137"/>
      <point x="766" y="106" type="curve"/>
      <point x="766" y="106"/>
      <point x="730" y="105"/>
      <point x="649" y="102" type="curve" smooth="yes"/>
      <point x="613" y="101"/>
      <point x="576" y="100"/>
      <point x="539" y="100" type="curve" smooth="yes"/>
      <point x="466" y="100"/>
      <point x="415" y="97"/>
      <point x="376" y="97" type="curve" smooth="yes"/>
      <point x="314" y="97"/>
      <point x="279" y="99"/>
      <point x="229" y="106" type="curve" smooth="yes"/>
      <point x="174" y="114"/>
      <point x="133" y="133"/>
      <point x="113" y="164" type="curve" smooth="yes"/>
      <point x="103" y="180"/>
      <point x="96" y="200"/>
      <point x="92" y="224" type="curve"/>
      <point x="73" y="231" type="line"/>
      <point x="68" y="188"/>
      <point x="69" y="151"/>
      <point x="77" y="120" type="curve" smooth="yes"/>
      <point x="94" y="59"/>
      <point x="142" y="22"/>
      <point x="232" y="7" type="curve" smooth="yes"/>
      <point x="268" y="1"/>
      <point x="299" y="-2"/>
      <point x="397" y="-2" type="curve" smooth="yes"/>
      <point x="440" y="-2"/>
      <point x="588" y="3"/>
      <point x="692" y="7" type="curve" smooth="yes"/>
      <point x="727" y="9"/>
      <point x="755" y="23"/>
      <point x="776" y="50" type="curve"/>
      <point x="781" y="38"/>
      <point x="789" y="28"/>
      <point x="798" y="21" type="curve" smooth="yes"/>
      <point x="819" y="5"/>
      <point x="849" y="0"/>
      <point x="864" y="0" type="curve" smooth="yes"/>
      <point x="907" y="0" type="line"/>
      <point x="907" y="98" type="line"/>
    </contour>
    <contour>
      <point x="439" y="546"/>
      <point x="440" y="557"/>
      <point x="443" y="569" type="curve"/>
      <point x="393" y="553"/>
      <point x="350" y="533"/>
      <point x="315" y="507" type="curve" smooth="yes"/>
      <point x="283" y="483"/>
      <point x="259" y="453"/>
      <point x="245" y="416" type="curve"/>
      <point x="252" y="410" type="line"/>
      <point x="274" y="442"/>
      <point x="296" y="462"/>
      <point x="321" y="480" type="curve" smooth="yes"/>
      <point x="357" y="505"/>
      <point x="395" y="521"/>
      <point x="434" y="536" type="curve"/>
    </contour>
    <contour>
      <point x="294" y="520" type="move" name="top"/>
    </contour>
    <contour>
      <point x="440" y="-27" type="move" name="bottom"/>
    </contour>
  </outline>
</glyph>
<glyph name="kaf_kaf-ar.fina" format="1">
  <advance width="1073"/>
  <outline>
    <contour>
      <point x="1037" y="98" type="line" smooth="yes"/>
      <point x="973" y="98"/>
      <point x="940" y="140"/>
      <point x="916" y="176" type="curve"/>
      <point x="893" y="208"/>
      <point x="859" y="252"/>
      <point x="827" y="286" type="curve" smooth="yes"/>
      <point x="809" y="306"/>
      <point x="770" y="346"/>
      <point x="746" y="370" type="curve"/>
      <point x="822" y="413"/>
      <point x="913" y="461"/>
      <point x="961" y="480" type="curve"/>
      <point x="969" y="511"/>
      <point x="974" y="538"/>
      <point x="978" y="568" type="curve"/>
      <point x="908" y="535"/>
      <point x="761" y="464"/>
      <point x="677" y="391" type="curve"/>
      <point x="671" y="450"/>
      <point x="665" y="503"/>
      <point x="659" y="568" type="curve"/>
      <point x="636" y="547"/>
      <point x="619" y="529"/>
      <point x="598" y="497" type="curve"/>
      <point x="617" y="386"/>
      <point x="628" y="309"/>
      <point x="637" y="239" type="curve" smooth="yes"/>
      <point x="640" y="214"/>
      <point x="642" y="201"/>
      <point x="644" y="179" type="curve" smooth="yes"/>
      <point x="646" y="160"/>
      <point x="641" y="141"/>
      <point x="627" y="125" type="curve" smooth="yes"/>
      <point x="611" y="107"/>
      <point x="588" y="95"/>
      <point x="563" y="95" type="curve" smooth="yes"/>
      <point x="511" y="94"/>
      <point x="459" y="94"/>
      <point x="407" y="93" type="curve" smooth="yes"/>
      <point x="341" y="92"/>
      <point x="274" y="94"/>
      <point x="229" y="101" type="curve" smooth="yes"/>
      <point x="174" y="109"/>
      <point x="133" y="128"/>
      <point x="113" y="159" type="curve" smooth="yes"/>
      <point x="104" y="173"/>
      <point x="96" y="194"/>
      <point x="92" y="219" type="curve"/>
      <point x="73" y="226" type="line"/>
      <point x="68" y="183"/>
      <point x="69" y="145"/>
      <point x="77" y="115" type="curve" smooth="yes"/>
      <point x="83" y="92"/>
      <point x="95" y="69"/>
      <point x="119" y="49" type="curve" smooth="yes"/>
      <point x="138" y="33"/>
      <point x="173" y="12"/>
      <point x="231" y="2" type="curve" smooth="yes"/>
      <point x="266" y="-4"/>
      <point x="305" y="-6"/>
      <point x="358" y="-6" type="curve" smooth="yes"/>
      <point x="374" y="-6"/>
      <point x="431" y="-6"/>
      <point x="586" y="-6" type="curve" smooth="yes"/>
      <point x="648" y="-6"/>
      <point x="689" y="26"/>
      <point x="692" y="82" type="curve"/>
      <point x="697" y="34"/>
      <point x="734" y="0"/>
      <point x="795" y="0" type="curve" smooth="yes"/>
      <point x="852" y="0"/>
      <point x="895" y="47"/>
      <point x="890" y="113" type="curve"/>
      <point x="919" y="37"/>
      <point x="959" y="0"/>
      <point x="1038" y="0" type="curve" smooth="yes"/>
      <point x="1073" y="0" type="line"/>
      <point x="1073" y="98" type="line"/>
    </contour>
    <contour>
      <point x="834" y="112"/>
      <point x="818" y="99"/>
      <point x="779" y="98" type="curve"/>
      <point x="754" y="99"/>
      <point x="734" y="108"/>
      <point x="719" y="125" type="curve"/>
      <point x="708" y="139"/>
      <point x="702" y="162"/>
      <point x="700" y="178" type="curve" smooth="yes"/>
      <point x="692" y="243"/>
      <point x="686" y="289"/>
      <point x="680" y="344" type="curve"/>
      <point x="709" y="321"/>
      <point x="753" y="275"/>
      <point x="775" y="246" type="curve" smooth="yes"/>
      <point x="792" y="225"/>
      <point x="827" y="179"/>
      <point x="853" y="140" type="curve"/>
    </contour>
    <contour>
      <point x="457" y="240"/>
      <point x="442" y="241"/>
      <point x="410" y="241" type="curve" smooth="yes"/>
      <point x="384" y="241"/>
      <point x="360" y="246"/>
      <point x="360" y="265" type="curve"/>
      <point x="377" y="279"/>
      <point x="399" y="289"/>
      <point x="424" y="297" type="curve"/>
      <point x="432" y="307"/>
      <point x="438" y="316"/>
      <point x="443" y="327" type="curve"/>
      <point x="430" y="324"/>
      <point x="406" y="316"/>
      <point x="384" y="304" type="curve" smooth="yes"/>
      <point x="352" y="287"/>
      <point x="336" y="267"/>
      <point x="336" y="243" type="curve" smooth="yes"/>
      <point x="336" y="228"/>
      <point x="349" y="216"/>
      <point x="384" y="214" type="curve" smooth="yes"/>
      <point x="412" y="212"/>
      <point x="423" y="210"/>
      <point x="423" y="203" type="curve" smooth="yes"/>
      <point x="423" y="183"/>
      <point x="346" y="163"/>
      <point x="300" y="149" type="curve"/>
      <point x="330" y="147"/>
      <point x="362" y="148"/>
      <point x="396" y="152" type="curve"/>
      <point x="440" y="178"/>
      <point x="457" y="197"/>
      <point x="457" y="219" type="curve" smooth="yes"/>
    </contour>
    <contour>
      <point x="537" y="0" type="move" name="caret_1"/>
    </contour>
    <contour>
      <point x="795" y="-25" type="move" name="bottom_1"/>
    </contour>
    <contour>
      <point x="837" y="547" type="move" name="top_1"/>
    </contour>
    <contour>
      <point x="369" y="340" type="move" name="top_2"/>
    </contour>
    <contour>
      <point x="374" y="-35" type="move" name="bottom_2"/>
    </contour>
  </outline>
</glyph>
<glyph name="meem-ar.alt" format="1">
  <advance width="598"/>
  <outline>
    <contour>
      <point x="531" y="96" type="line"/>
      <point x="538" y="122"/>
      <point x="540" y="149"/>
      <point x="536" y="183" type="curve" smooth="yes"/>
      <point x="532" y="217"/>
      <point x="525" y="241"/>
      <point x="508" y="263" type="curve" smooth="yes"/>
      <point x="493" y="282"/>
      <point x="476" y="292"/>
      <point x="453" y="292" type="curve" smooth="yes"/>
      <point x="418" y="292"/>
      <point x="391" y="268"/>
      <point x="373" y="243" type="curve" smooth="yes"/>
      <point x="361" y="227"/>
      <point x="351" y="207"/>
      <point x="341" y="181" type="curve"/>
      <point x="327" y="190" type="line"/>
      <point x="291" y="101"/>
      <point x="241" y="38"/>
      <point x="150" y="-14" type="curve" smooth="yes"/>
      <point x="118" y="-32"/>
      <point x="85" y="-50"/>
      <point x="20" y="-85" type="curve"/>
      <point x="29" y="-98" type="line"/>
      <point x="51" y="-93"/>
      <point x="69" y="-91"/>
      <point x="87" y="-91" type="curve" smooth="yes"/>
      <point x="110" y="-91"/>
      <point x="132" y="-94"/>
      <point x="151" y="-94" type="curve" smooth="yes"/>
      <point x="179" y="-94"/>
      <point x="199" y="-88"/>
      <point x="223" y="-71" type="curve" smooth="yes"/>
      <point x="259" y="-46"/>
      <point x="304" y="2"/>
      <point x="340" y="89" type="curve"/>
      <point x="383" y="61"/>
      <point x="431" y="44"/>
      <point x="499" y="37" type="curve"/>
    </contour>
    <contour>
      <point x="506" y="145"/>
      <point x="508" y="110"/>
      <point x="508" y="110" type="curve"/>
      <point x="463" y="120"/>
      <point x="414" y="141"/>
      <point x="367" y="169" type="curve"/>
      <point x="367" y="169"/>
      <point x="379" y="222"/>
      <point x="421" y="222" type="curve" smooth="yes"/>
      <point x="446" y="222"/>
      <point x="476" y="203"/>
      <point x="492" y="172" type="curve" smooth="yes"/>
    </contour>
    <contour>
      <point x="453" y="321" type="move" name="top"/>
    </contour>
    <contour>
      <point x="404" y="-10" type="move" name="bottom"/>
    </contour>
  </outline>
</glyph>
<glyph name="wasla-ar" format="1">
  <advance width="0"/>
  <outline>
    <contour>
      <point x="79" y="797"/>
      <point x="51" y="812"/>
      <point x="36" y="812" type="curve" smooth="yes"/>
      <point x="14" y="812"/>
      <point x="-6" y="793"/>
      <point x="-19" y="778" type="curve" smooth="yes"/>
      <point x="-29" y="766"/>
      <point x="-40" y="748"/>
      <point x="-44" y="739" type="curve"/>
      <point x="-55" y="743"/>
      <point x="-64" y="747"/>
      <point x="-77" y="742" type="curve" smooth="yes"/>
      <point x="-89" y="736"/>
      <point x="-93" y="726"/>
      <point x="-94" y="723" type="curve"/>
      <point x="-95" y="720"/>
      <point x="-96" y="713"/>
      <point x="-96" y="707" type="curve"/>
      <point x="-89" y="712"/>
      <point x="-80" y="717"/>
      <point x="-70" y="717" type="curve" smooth="yes"/>
      <point x="-58" y="717"/>
      <point x="-48" y="712"/>
      <point x="-38" y="707" type="curve" smooth="yes"/>
      <point x="-28" y="702"/>
      <point x="-17" y="697"/>
      <point x="-3" y="697" type="curve" smooth="yes"/>
      <point x="55" y="697"/>
      <point x="79" y="749"/>
      <point x="79" y="778" type="curve" smooth="yes"/>
    </contour>
    <contour>
      <point x="55" y="742"/>
      <point x="38" y="732"/>
      <point x="10" y="732" type="curve" smooth="yes"/>
      <point x="-1" y="732"/>
      <point x="-18" y="732"/>
      <point x="-26" y="740" type="curve"/>
      <point x="-12" y="763"/>
      <point x="5" y="786"/>
      <point x="28" y="786" type="curve" smooth="yes"/>
      <point x="49" y="786"/>
      <point x="63" y="767"/>
      <point x="61" y="757" type="curve"/>
    </contour>
    <contour>
      <point x="-9" y="812" type="move" name="top"/>
    </contour>
    <contour>
      <point x="-9" y="677" type="move" name="_top"/>
    </contour>
  </outline>
</glyph>
